<svg id="logo" xmlns="http://www.w3.org/2000/svg" viewBox="0 0 528.87 158.03"><defs><style>.cls-1,.cls-8{fill:#00306c;}.cls-2{fill:#001b3f;}.cls-3{fill:#82a7cd;}.cls-4,.cls-6{fill:#e03e2e;}.cls-5{font-size:47.61px;fill:#9e9fa1;}.cls-5,.cls-8{font-family:MicrostyleBoldExtendedATT, "Green Mountain 3";}.cls-6{letter-spacing:0em;}.cls-7{letter-spacing:-0.02em;}.cls-8{font-size:65.1px;}</style></defs><path class="cls-1" d="M175.41,162.64c2.26,1.46,3.45,3.74,4.47,6.08a20.42,20.42,0,0,1,1.84,8.15c0,6.39.7,12.8-.29,19.14-1.38,8.77-6.85,14-15.67,15.08-5.06.64-10.16.38-15.23.39-19.19.05-38.39,0-57.58,0a19.9,19.9,0,0,1-10-2.43,12.51,12.51,0,0,1-6.28-9.1,33.46,33.46,0,0,1-.24-11.25,7,7,0,0,1,6.23-6c6.63-.78,9.83,1.84,10.45,8.56a3.61,3.61,0,0,0,3.62,3.28c2.56.12,5.14.08,7.71.08q24.3,0,48.6,0c1.73,0,3.46-.11,5.2-.16,4.73-.16,6.48-3.83,6.64-7,.07-1.55,0-3.1,0-4.66.15-5.24-3.86-7.84-8-7.78-11.12.16-22.24,0-33.36,0-9.32,0-18.65.16-28,0-5.19-.11-10.18-1.34-14.14-5.09-3.31-3.13-4.45-7.22-5-11.57-.67-5.31.42-10.62,0-15.92a28.77,28.77,0,0,1,.83-7.79c1.42-7.42,9.3-12.1,15.17-12.33,2.69-.11,5.38-.2,8.07-.19q32.64,0,65.28.09a23.54,23.54,0,0,1,4.11.29c6.61,1.2,10.69,5.59,11.65,12.29a51.38,51.38,0,0,1,.27,8.41,9.63,9.63,0,0,1-.82,3.45c-1.31,3.24-4.93,4.73-10,4.07-3.42-.45-5.59-2.51-6-5.89-.56-5.17,0-5.94-6.68-6-19.07,0-38.14,0-57.21,0-5.68,0-8.18,2.61-8.23,8.25,0,2.74-.34,5.53,1.29,8,.48.72,1,1.39,1.58,2.08a4.13,4.13,0,0,0,3.62,1.37q27.9,0,55.78,0a76.17,76.17,0,0,1,11.59.51,20.47,20.47,0,0,1,6.12,2.31A9.17,9.17,0,0,0,175.41,162.64Z" transform="translate(-44.68 -88.43)"/><path class="cls-2" d="M175.41,162.64c-2.16.08-3.59-1.67-5.49-2.23-.39-.12-.76-.54-1.12-.52-3.32.15-6.51-1.52-9.91-.55-1.1.32-2.32-.28-3.53-.28-18.7,0-37.4,0-56.11,0a12.13,12.13,0,0,1-3.38-.91c-.4-.11-.35-.56,0-.85,2.07,1.13,4.32,1.13,6.58,1.13,19.9,0,39.8,0,59.7,0C167.05,158.46,171.52,159.57,175.41,162.64Z" transform="translate(-44.68 -88.43)"/><path class="cls-3" d="M129.47,88.44c13.75,0,27.5,0,41.26,0a39.73,39.73,0,0,1,18,4.18,44.27,44.27,0,0,1,19.79,19c.61,1.14.43,1.68-.59,2.28-3.64,2.12-7.27,4.29-10.9,6.44-1,.6-1.68.47-2.25-.71a27.12,27.12,0,0,0-11.84-12.24,23.66,23.66,0,0,0-11.47-2.9l-65.47,0c-6.45,0-12.92-.15-19.37,0-11,.34-18.6,6-23.45,15.74a24.94,24.94,0,0,0-2.33,11.29c0,22.54-.07,45.08.05,67.62,0,4.74.28,9.51,2.29,14a26.53,26.53,0,0,0,7.8,10.28,27.28,27.28,0,0,0,17.9,6c15.67-.2,31.34,0,47-.18,2.08,0,2.66,1.25,3.38,2.52,2.25,4,4.46,8,6.95,11.85,1,1.47-.15,1.54-1.22,1.55-7,0-14,0-21,.06-3.53,0-7,.22-10.57.21-9.68-.05-19.36-.13-29-.29-5.29-.09-10.15-1.95-14.88-4.11A40.7,40.7,0,0,1,51.42,224.8a42,42,0,0,1-6.51-22.37c0-6.68-.36-13.37-.17-20,.28-9.74.08-19.48.16-29.22.07-7.4-.07-14.81.06-22.21a43,43,0,0,1,11.32-28.63A42.52,42.52,0,0,1,80.89,88.87a40.56,40.56,0,0,1,7.32-.41c13.76,0,27.51,0,41.26,0Z" transform="translate(-44.68 -88.43)"/><path class="cls-4" d="M211.61,128.88c.18-.13.84-.63,1.26-.41.23.11.35.47.35,1.23-.06,20.44-.05,40.87-.09,61.31,0,4.71.05,9.44-.19,14.14a42.37,42.37,0,0,1-27.82,37.44c-6.62,2.52-13.49,2.81-20.44,2.57a1.39,1.39,0,0,1-1.31-1c-2.2-4.41-4.81-8.59-7.36-12.8-.87-1.44-.64-1.91,1-1.95,2.87-.07,5.73-.09,8.6-.08,5.2,0,10.4.12,15.27-2.15a31,31,0,0,0,2.91-1.42s2.38-1.71,3.53-2.64a32.18,32.18,0,0,0,7.54-9.6,31.11,31.11,0,0,0,2.85-13.35c0-4.28-.53-62.41-.24-63a1.3,1.3,0,0,1,.72-.62C205.48,132.56,210.4,129.77,211.61,128.88Z" transform="translate(-44.68 -88.43)"/><text class="cls-5" transform="translate(174.65 146.13) scale(0.91 1)">no JAPÃO<tspan class="cls-6" x="287.49" y="0">.</tspan><tspan x="301.6" y="0">n</tspan><tspan class="cls-7" x="333.36" y="0">e</tspan><tspan x="362.46" y="0">t</tspan></text><text class="cls-8" transform="translate(176.94 100.75) scale(0.91 1)">SEGUROS</text></svg>